<svg xmlns="http://www.w3.org/2000/svg" xmlns:xlink="http://www.w3.org/1999/xlink" width="90" height="19" viewBox="0 0 90 19"><title>logo</title><use fill="#FFF" transform="translate(0 5.4)" xlink:href="#path0_fill"/><use fill="#FFF" transform="translate(19.9 5.08)" xlink:href="#path1_fill"/><use fill="#FFF" transform="translate(35.4 4.95)" xlink:href="#path2_fill"/><use fill="#FFF" transform="translate(50.8 .32)" xlink:href="#path3_fill"/><use fill="#FFF" transform="translate(56.3)" xlink:href="#path4_fill"/><use fill="#FFF" transform="translate(62.1 4.95)" xlink:href="#path5_fill"/><use fill="#FFF" transform="translate(77 .32)" xlink:href="#path6_fill"/><defs><path id="path0_fill" d="M0 0h3.24l2.667 7.495L8.765 0h1.969l2.795 7.431L16.196 0h3.24l-4.828 13.211h-2.096L9.718 5.716l-2.922 7.495H4.764L0 0z"/><path id="path1_fill" d="M13.91 7.876H3.24c.126.952.57 1.715 1.206 2.223.699.571 1.524.825 2.54.825 1.207 0 2.287-.444 3.176-1.27l2.795 1.334c-.699 1.016-1.524 1.715-2.477 2.16-.953.444-2.096.698-3.43.698-2.096 0-3.747-.635-5.081-1.969C.635 10.543 0 8.956 0 6.987c0-2.033.635-3.684 1.969-5.018C3.239.635 4.891 0 6.859 0c2.097 0 3.748.635 5.082 1.969C13.274 3.303 13.91 5.08 13.91 7.24v.635zm-3.303-2.604c-.19-.762-.635-1.334-1.27-1.779a3.85 3.85 0 0 0-2.223-.698c-.953 0-1.715.254-2.414.762-.445.317-.826.889-1.207 1.715h7.114z"/><path id="path2_fill" d="M13.465 3.112l-2.731 1.525c-.508-.572-1.016-.89-1.524-1.144a4.943 4.943 0 0 0-1.779-.317c-1.27 0-2.223.38-2.985 1.08-.762.762-1.143 1.714-1.143 2.858 0 1.143.38 2.032 1.08 2.73.762.7 1.714 1.08 2.921 1.08 1.461 0 2.668-.508 3.493-1.524l2.604 1.778c-1.397 1.842-3.43 2.732-5.97 2.732-2.35 0-4.128-.699-5.462-2.033C.635 10.48 0 8.892 0 7.05c0-1.27.318-2.477.953-3.557S2.477 1.588 3.62.953C4.764.318 6.034 0 7.431 0c1.334 0 2.477.254 3.557.762.953.635 1.842 1.397 2.477 2.35z"/><path id="path3_fill" d="M0 0h3.303v18.292H0V0z"/><path id="path4_fill" d="M2.096 0c.572 0 1.08.19 1.524.635.445.445.635.953.635 1.524 0 .572-.19 1.08-.635 1.525-.38.444-.889.635-1.46.635-.572 0-1.08-.19-1.525-.635A2.064 2.064 0 0 1 0 2.159C0 1.588.19 1.08.635.7 1.016.19 1.525 0 2.096 0zM.445 5.399h3.302v13.21H.445V5.4z"/><path id="path5_fill" d="M13.465 3.112l-2.731 1.525c-.508-.572-1.016-.89-1.524-1.144a4.943 4.943 0 0 0-1.779-.317c-1.27 0-2.223.38-2.985 1.08-.762.762-1.143 1.714-1.143 2.858 0 1.143.38 2.032 1.08 2.73.762.7 1.714 1.08 2.921 1.08 1.461 0 2.668-.508 3.493-1.524l2.604 1.778c-1.397 1.842-3.43 2.732-5.97 2.732-2.35 0-4.128-.699-5.462-2.033C.635 10.48 0 8.892 0 7.05c0-1.27.318-2.477.953-3.557S2.477 1.588 3.62.953C4.764.318 6.034 0 7.431 0c1.334 0 2.477.254 3.557.762.953.635 1.842 1.397 2.477 2.35z"/><path id="path6_fill" d="M.064 0h3.302v10.543l4.89-5.462h4.13l-5.717 6.352 6.351 6.86H8.892l-5.59-6.098v6.097H0V0h.064z"/></defs></svg>