<svg xmlns="http://www.w3.org/2000/svg" width="34" height="66" id="Layer_1" data-name="Layer 1" viewBox="0 0 32.12 55.2">
  <defs>
    <style>
      .cls-2{fill:#000c24}
    </style>
  </defs>
  <title>
    map-marker
  </title>
  <path d="M16.94 59.61c.39-7.58 4.54-19.85 10.57-27.54 3.28-4.22 4.82-8.33 4.82-10.81A15.6 15.6 0 0 0 16.86 5.59 15.6 15.6 0 0 0 1.39 21.26c0 2.48 1.5 6.59 4.82 10.81 6 7.73 10.18 20 10.57 27.54z" class="cls-2" transform="translate(-.8 -5)"/>
  <path d="M17.53 60.2h-1.3v-.55c-.36-7.26-4.38-19.45-10.46-27.23C2.1 27.77.8 23.62.8 21.26A16.19 16.19 0 0 1 16.86 5a16.19 16.19 0 0 1 16.06 16.26c0 2.36-1.3 6.51-4.93 11.16-6.08 7.78-10.11 19.93-10.46 27.23v.55zm-.67-54A15 15 0 0 0 2 21.26c0 2 1.23 6 4.66 10.41 5.17 6.59 8.88 16.3 10.22 23.68 1.32-7.35 5.03-17.09 10.2-23.68 3.43-4.42 4.65-8.36 4.65-10.41A15 15 0 0 0 16.86 6.18z" class="cls-2" transform="translate(-.8 -5)"/>
</svg>
